poster: 
http://imgh.us/Spanish-A1.jpg

General
Complete name : /mnt/sdc1/rahulraj/files/Spanish Masala - (2012) - Malayalam Movie - DVDRip XviD MP3 ESubs- Exclusive/Spanish Masala - (2012) - Malayalam Movie - DVDRip XviD MP3 ESubs- Exclusive.avi
Format : AVI
Format/Info : Audio Video Interleave
File size : 788 MiB
Duration : 2h 34mn
Overall bit rate : 714 Kbps
Writing application : MEncoder version Beta 4.4.5 building on 20110111
Writing library : [= DigiArty videodll! =][= DigiArty videodll! =][= DigiArty videodll! =][= DigiArty videodll! =][= 

Video
ID : 0
Format : MPEG-4 Visual
Format profile : Advanced Simple@L5
Format settings, BVOP : 2
Format settings, QPel : No
Format settings, GMC : No warppoints
Format settings, Matrix : Default (MPEG)
Codec ID : XVID
Codec ID/Hint : XviD
Duration : 2h 34mn
Bit rate : 605 Kbps
Width : 640 pixels
Height : 360 pixels
Display aspect ratio : 16:9
Frame rate : 23.976 fps
Color space : YUV
Chroma subsampling : 4:2:0
Bit depth : 8 bits
Scan type : Progressive
Compression mode : Lossy
Bits/(Pixel*Frame) : 0.110
Stream size : 668 MiB (85%)
Writing library : XviD 1.2.1 (UTC 2008-12-04)

Audio
ID : 1
Format : MPEG Audio
Format version : Version 1
Format profile : Layer 3
Codec ID : 55
Codec ID/Hint : MP3
Duration : 2h 34mn
Bit rate mode : Constant
Bit rate : 96.0 Kbps
Channel(s) : 2 channels
Sampling rate : 48.0 KHz
Compression mode : Lossy
Delay relative to video : 42ms
Stream size : 106 MiB (13%)
Alignment : Aligned on interleaves
Interleave, duration : 24 ms (0.58 video frame)
Interleave, preload duration : 504 ms
Writing library : LAME3.98.4

SCREENS: 
http://picturestack.com/172/173/TFJvlcsnap201vNR.png 
http://picturestack.com/172/173/ahxvlcsnap201o6w.png 
http://picturestack.com/172/173/MePvlcsnap201hvu.png 
http://picturestack.com/172/173/rydvlcsnap201sIk.png 
http://picturestack.com/172/173/DmTvlcsnap201hId.png 
http://picturestack.com/172/173/RyBvlcsnap201d6h.png 
http://picturestack.com/172/173/bvOvlcsnap201eWw.png 
http://picturestack.com/172/173/cEivlcsnap201Qnh.png

